<svg id="SvgjsSvg1001" width="288" height="288" xmlns="http://www.w3.org/2000/svg" version="1.1" xmlns:xlink="http://www.w3.org/1999/xlink" xmlns:svgjs="http://svgjs.com/svgjs"><defs id="SvgjsDefs1002"></defs><g id="SvgjsG1008"><svg xmlns="http://www.w3.org/2000/svg" width="288" height="288" version="1.0" viewBox="0 0 376 376"><g transform="matrix(.1 0 0 -.1 0 376)" fill="#d21717" class="color000 svgShape"><path d="M1824 3539c-16-18-19-40-22-165l-4-144 82 0 82 0-4 144c-4 166-12 186-78 186-25 0-43-7-56-21zM1370 3073c-48-18-50-25-50-225l0-188 560 0 560 0 0 188c0 179-1 190-21 208-20 18-45 19-528 21-278 1-513-1-521-4zM1040 2490c-19-19-20-33-20-365l0-346 43 25c23 13 213 119 422 236 307 171 385 210 407 206 15-3 210-107 433-231 223-124 408-225 411-225 2 0 4 153 4 340 0 327-1 341-20 360-20 20-33 20-840 20-807 0-820 0-840-20z" fill="#d21717" class="color000 svgShape"></path><path d="M1200 1709 c-327 -182 -597 -333 -599 -335 -2 -2 3 -61 12 -131 40-320 174 -606 385 -820 33 -34 58 -64 55 -67 -4 -3 -27 -6 -53 -6 -38 0 -55 6
-86 31 -66 53 -141 83 -209 82 -70 0 -122 -20 -182 -69 -24 -19 -56 -39 -73
-44 -36 -10 -88 3 -125 32 -56 44 -125 16 -125 -50 0 -71 105 -132 224 -132
70 0 119 20 190 74 38 29 56 36 92 36 48 0 91 -17 115 -46 30 -36 110 -64 187
-64 79 0 124 17 193 72 37 30 92 45 131 35 13 -4 47 -24 77 -47 67 -50 146
-75 214 -66 53 8 135 44 157 71 34 41 116 58 163 34 12 -7 37 -25 55 -40 103
-90 247 -88 367 6 50 39 65 45 105 45 39 0 56 -7 94 -36 70 -53 122 -74 192
-74 79 0 139 21 198 70 76 63 127 63 206 0 21 -17 58 -39 81 -50 156 -70 397
54 311 161 -25 30 -70 29 -113 -3 -32 -25 -65 -33 -115 -30 -12 1 -39 16 -60
33 -134 108 -289 107 -416 -2 -30 -26 -47 -32 -83 -32 -25 0 -48 3 -51 6 -4 3
28 43 69 87 160 169 276 389 332 624 23 98 52 303 43 311 -2 3 -272 153 -599
335 l-594 330 -5 -638 c-4 -491 -8 -642 -18 -659 -24 -43 -100 -43 -124 0 -10
17 -14 168 -18 660 l-5 637 -595 -331z" fill="#d21717" class="color000 svgShape"></path></g></svg></g></svg>